<svg xmlns="http://www.w3.org/2000/svg" version="1.0" width="3400" height="2400" viewBox="-3 -3 2206 1806"><rect x="-3" y="-3" width="2206" height="1806" rx="38.4" fill="#fff"/><path d="M1.1 903.2c.1 496.3.3 901.6.5 900.8.2-.8 21.1-131.6 46.4-290.5 25.3-159 46.2-290 46.5-291.2.5-2.3.7-2.3 19.4-2.3 10.3 0 21.3.5 24.2 1 12.1 2.3 19.3 8.8 22.9 20.8 1.7 5.8 92 564.7 92 569.4 0 1.7-2.3 1.8-34.9 1.8-32.4 0-35-.1-35.5-1.8-.2-.9-12.7-91.3-27.7-200.7-15-109.5-27.5-199.3-27.8-199.7-.4-.4-12.9 88.9-28 198.5-15 109.5-27.5 200.2-27.8 201.4l-.5 2.3H1v6l444.8-.1c373.4-.1 443.7-.3 438.2-1.4-13.9-2.9-24.6-7.9-35.8-16.8-15.1-11.9-24.6-29.1-27.2-49.1-.7-5.6-1-80.5-.8-240.1.3-215.3.5-232.5 2.1-238.2 8.9-32.7 35.6-54.7 70.8-58.3 12.9-1.3 41.8-1.3 53.4 0 35.1 4.1 62.3 28.3 69 61.5 1.4 7 1.6 15.4 1.3 61.5-.3 53.2-.3 53.5-2.6 59.2-4.3 10.6-7.7 13-35 24.8-13.4 5.8-24.8 10.6-25.3 10.8-.5.2-1-30.6-1.1-70.5l-.3-70.8-2.7-5c-3.5-6.7-9-11.8-16.3-15.2-5-2.3-7.4-2.7-14.5-2.8-7.3 0-9.4.4-14.5 2.8-7.3 3.4-12.8 8.5-16.3 15.2l-2.7 5v450l2.5 5c5.8 11.9 17.2 18.7 31 18.7 14.6-.1 26.1-7.2 31.7-19.8 1.6-3.5 1.9-8.8 2.3-53.4.5-49.1.6-49.6 2.9-55.5 1.6-4.1 4-7.6 7.5-11 4.6-4.5 7.4-6 28.3-14.8 12.8-5.3 23.7-9.7 24.3-9.7.8 0 1 22.9.8 77.7l-.3 77.8-3.2 9c-7.2 20.7-20.2 35.4-40 45.4-5.6 2.8-16.6 6.3-23.3 7.4-1.4.2 294.6.5 657.8.6l660.2.1v-6h-69.5l-28.4-105.8c-15.6-58.1-28.7-106-29-106.4-.4-.4-14 44.1-30.4 99-16.4 54.8-30.7 102.7-31.8 106.4l-2 6.8H2040c-20.4 0-37-.3-37-.6s22.1-70.7 49-156.4c27-85.6 49-156.3 49-157 0-.8-18.7-63.6-41.5-139.7-22.8-76-41.5-138.5-41.5-138.9 0-.3 12.7-.4 28.3-.2 25.2.3 28.6.5 31.7 2.2 4.9 2.6 9.8 7.4 12.1 11.9 1.1 2.1 12.3 39.4 25 83 12.6 43.5 23.1 79.2 23.2 79.4.2.1 9.9-35.4 21.6-79 13.5-50.2 22.3-81 23.9-84.1 1.5-2.6 4.2-6.1 6.2-7.7 6.3-5.3 10.6-5.9 39.8-5.9 25.1 0 26.4.1 26 1.8-.3 1-18.4 64-40.3 139.9l-39.7 138 44.7 150.9c24.6 83 45.3 152.7 46 154.9 1.1 3.3 1.3-164.7 1.4-900.3L2268 1h-948.3l6.9 5.2c3.8 2.9 10.3 8.7 14.6 12.9 4.2 4.2 11.8 11.3 17 15.7 5.1 4.4 14.5 13.5 20.8 20.3 6.3 6.8 17.8 18.9 25.5 26.9 7.7 8 17.8 19.5 22.5 25.5 4.7 6.1 12.1 15 16.4 20 14.9 16.9 22 27.5 49.4 74 14.7 25 29.5 51.4 52.4 93.5l7.3 13.5 8 .6c8.7.6 13.5 2.5 16.1 6.4.9 1.4 3.6 7.8 5.9 14.3 23.4 64.1 45.5 118.8 46.3 114.8.2-.9-.5-5.1-1.4-9.3-1-4.3-1.9-10.7-1.9-14.3-.2-9.2-1.1-12.3-6.7-22.7-4.7-8.9-4.9-9.4-3.8-13.4 1.8-6.5.6-9.9-6.2-17.9l-6.1-7.3 5.9 3.4c15.1 8.5 16.4 9.5 20.5 15.9 8.2 12.7 11.3 24.1 12.8 47.1 1.9 28.8 6.8 50.7 18.7 83.6 4 11.1 8.2 23.4 9.4 27.2l2.1 7.1-6 13.8c-6.7 15.4-17.8 45.8-21 57.2-3.2 11.6-3.9 16.4-5.6 37.7-3.3 41.7-7.7 71.7-12 82.6-1.4 3.4-5 9.5-8.1 13.5l-5.5 7.3 2.1 2.9c1.1 1.6 3.4 3.9 5 5 2 1.4 5.6 7.3 11.6 19.3 4.8 9.5 10.4 20.1 12.5 23.7 4.2 7.2 11.7 25.2 14.9 35.9l2 7 5.3.5c15.1 1.5 19.6 1.5 25.3.1 13.3-3.5 44-21 60.4-34.5 17.1-14.2 40.1-35 56-50.5 22.4-22 32-27.9 55.4-33.9 26.9-7 70.1-7.5 92.6-1 3 .9 11.8 1.9 19.5 2.4 11.8.7 15.3 1.3 22 3.8 4.4 1.6 12.1 3.5 17 4.2 5 .7 10.1 1.7 11.3 2.1 4 1.5 11.1 7.7 24.7 21.4 13.9 14 22.5 20.4 43.6 32.5 6.6 3.9 12.3 7 12.5 7 .2 0 2.8 1.2 5.7 2.6 6.6 3.1 11 8.8 13.2 17 2 7.9 1.9 8.8-1.4 12.2-5.6 5.6-9.3 5.8-29.6 1.8-33.2-6.5-45.8-8.1-78.5-9.6-16.4-.7-23.3-1.5-34.7-3.9-18.7-4-28.4-8.9-40.1-20.8-12.9-13-21-16.3-39.7-16.3-19.9 0-26.9 3.3-44 20.5-6.9 6.8-17.6 19.3-25 28.9-7.2 9.3-15.6 20.1-18.8 24-3.1 3.9-8.8 10.9-12.5 15.5-11.2 14.1-14.3 17.3-15.8 16.1-.9-.9-2.2.3-5.3 4.8-4.5 6.6-13.1 14.8-14.1 13.3-.3-.6-2.6.6-5 2.5-2.5 2-11.7 8.6-20.5 14.6-18.1 12.5-25.3 18-27.3 20.9-.7 1-1.9 4.7-2.7 8.2-.7 3.4-1.4 5.6-1.4 4.9-.2-2.8-2.2.2-3.7 5.6-2.8 9.7-11.8 25.2-13.7 23.3-.5-.5-3.5 2-7.6 6.8-10.5 11.8-15.6 16-24.6 20.2-9 4.2-11 4.7-10.1 2.4.3-.8.9-2.2 1.3-3.2.4-1.1-2.7.2-9.3 3.7-5.4 2.9-10.3 5.6-10.9 6-1.5 1.1-14.5 5.9-14.5 5.4 0-.3.7-1.6 1.6-2.9 1-1.6 1.2-2.5.5-2.5-.6 0-8.1 2.2-16.6 5-8.5 2.7-15.9 5-16.5 5-.5 0-.7-.7-.3-1.6.5-1.2.1-1.5-1.3-1.1-1 .3-9.3 2.4-18.4 4.6-16 3.8-27.1 5.3-50.5 6.6l-10.9.7-12.1 7.2c-32.5 19.6-28.8 18.6-95.6 26.1-73 8.1-105 14.7-119.1 24.7-4.2 3-3.5 4.4 3.5 6.6 17.1 5.5 40.3 12.3 49.7 14.6 22.4 5.5 28.9 11.1 40.6 35.4 14.1 29.2 32.3 58.2 41.5 66.1 2.8 2.4 6 6.3 7 8.5 1.8 4 1.9 13.6 1.9 291.3V1813h-64l-.2-130.7-.3-130.8-2.3-3.3c-4.8-6.7-4.7-6.7-45.4-7l-36.8-.3V1813h-64v-286.8c.1-236.9.3-287.4 1.4-290.5 2.1-5.7 6-10.2 11.3-12.8 4.6-2.2 6-2.4 28-2.7l23.3-.4.2 124.4c.3 118.8.4 124.5 2.2 128 1 2.1 3.5 4.8 5.5 6 3.5 2.3 4.2 2.3 40.4 2.6l36.8.3-.3-137.8c-.2-100.7-.6-138.5-1.4-140.3-.7-1.4-4.3-5.9-8.1-10-10.6-11.5-17.8-23.3-20.4-33.4-2.1-8.6-4.5-10.2-36.4-24.1-22.9-10-33-13.7-44.7-16-13.7-2.8-18.1-5.4-21.9-12.7-3.4-6.7-2.1-22.6 2.2-24.8 1.1-.6 8.3-1.5 16.1-2 12.2-.9 37.9-4 44.4-5.5 3.3-.7 3.5-2.8.9-9.6-3.6-9.2-7.2-26.5-9-43.3-2-20-2.7-22.2-8.4-27.6-4.2-4-33.5-21.3-50-29.5-15.8-7.9-30.3-11.8-56.1-15.4-23.3-3.2-38.9-4.3-44-3.2-2.5.5-8.8 1.9-14 3.1-11.4 2.5-33.1 3.7-37.4 2.1-2.5-1-2.8-1.5-2.3-4.4l.5-3.3-7.1 1.9c-5.2 1.5-11.6 2.1-23.3 2.4-15.9.5-16.1.5-16.7-1.7-.5-2-1-2.1-4.9-1.5-2.4.4-11.3 2.7-19.8 5.2-17.5 5-31.4 7.6-50.8 9.4-9.9 1-13.5 1-14.4.1-1.1-1.1-1-1.3 7.7-8.5l3-2.6-5 1.1c-2.7.5-10.1 2.5-16.4 4.4-19.4 5.8-68 11.8-66.9 8.3.2-.8 4.3-4.1 9.1-7.3 4.8-3.3 8.6-6.1 8.4-6.2-.2-.2-3.2.4-6.7 1.2-13.7 3.2-43.9 7.6-52.7 7.8-12.4.1-13.2-.8-5.5-7 3.4-2.7 6-4.9 5.9-5-.1-.1-4.5.9-9.7 2.1-35.7 8.6-41.8 9.7-66.5 12.1-30.9 2.9-32.6 2.9-31.8.8.8-2.2-2.3-1.6-20.8 3.6-19.5 5.5-37.4 9-46.1 9-4.1 0-7.7-.3-8.1-.6-.3-.3.3-2 1.4-3.7 1-1.8 1.9-3.4 1.9-3.7 0-.3-5.2 1.1-11.6 3.3-12 4-35.8 9.7-40.8 9.7-1.6 0-3.4-.7-4-1.5-1-1.4-3.5-1-21.6 3.5-11.3 2.7-23.9 5.5-28 6.1-7.7 1.2-17 .6-17-1.1 0-.5 2.9-2.6 6.5-4.7 3.5-2 6.3-3.8 6.1-4-.5-.6-11.1 3.4-17.4 6.6-20.6 10.4-57.2 22.9-57.2 19.5 0-.5 2-3.4 4.5-6.4 2.4-3 4.3-5.5 4.1-5.7-.2-.2-6.6 2.1-14.3 5.1-24.7 9.6-40.4 14.5-54.4 16.9-11.6 2-14.7 3-22.7 7.1-15.1 7.6-47.6 21.4-62.8 26.6-7.7 2.6-19.4 7.3-26 10.3-14.1 6.5-22.8 10.1-42.7 17.3-14.5 5.3-18.7 6.3-18.7 4.5 0-1.4 10.9-10.6 25.4-21.4 7.1-5.4 12.6-9.7 12.3-9.7-1.7 0-29.9 11-57.7 22.4-16.7 6.9-30.8 12.6-31.3 12.6-1.3 0 6.9-6.7 14.8-12 11.9-8 37.9-22.8 51.8-29.5 7.2-3.5 21.3-9.4 31.2-13 156.9-58 226.7-79.3 344.5-104.9 53.6-11.6 87.7-17.4 129-22 51.3-5.7 93-8 146-7.9 48.9 0 96.6 1.9 182 7.3 17.3 1.1 41 2.5 52.5 3.1 39.5 2.1 134.9-1.3 144.9-5.1 1.3-.5 3.5-1.9 4.8-3.2 1.3-1.3 3.7-3.3 5.3-4.5l3-2.2h-6.8c-16.5-.2-40.1-4.3-43.9-7.7-1-1-1.8-2.8-1.8-4.1 0-2.7 6-9.6 13.3-15.5l4.9-3.8h-11.4c-7.1 0-13.6-.6-17.3-1.6-7.5-1.9-20.5-8.1-20.5-9.7 0-.7 2.6-4.4 5.8-8.2 4.8-5.8 6.9-7.4 11.8-9.4 8-3.2 8.7-4.1 3.2-4.1-5.4 0-25.7-5.9-33.6-9.6-7.1-3.5-8.6-5.8-6.9-11 1.9-5.3 13.7-13.4 24.2-16.6 4.1-1.3 7.5-2.5 7.5-2.8 0-.3-3.3-1.1-7.4-1.7-6.4-1-31-9.3-36.7-12.4-1.8-.9-2-1.7-1.6-4.7.9-5.2 4.5-8.3 17-14.6 9-4.6 13-6 20.2-7.2 5-.8 10.6-1.8 12.5-2.1 3-.5 2.1-.8-5.5-2-4.9-.7-13.3-2.5-18.5-3.9-19.5-5.2-46.6-13.6-48.7-15-2.8-1.8-2.9-4.4-.3-7.7 2.8-3.5 27.5-15.9 40.2-20.2 5.6-1.9 9.6-3.6 8.8-3.9-.8-.3-6-1.7-11.5-3.1-25.8-6.8-46.1-14.7-55.2-21.5-7.7-5.7-5.5-9.4 10.6-17.8 11.8-6.2 21.2-8.8 36.1-10.1 11.1-1 20.2-3.4 18.4-5-.5-.5-7.9-3.2-16.4-6-16.1-5.4-48.6-20.5-61.5-28.6-8-5-17-13.7-16.3-15.7.9-2.2 16-10.6 22.3-12.4 4.2-1.2 12.3-1.8 27.5-2.3 18.5-.6 21.1-.8 18.5-1.9-4.9-2.1-20.4-10.2-28.2-14.8-12.2-7.2-37.5-25.7-39.5-28.9-3.1-5-2.1-9.3 3-13.2 6-4.5 15-7 30.4-8.4 19-1.7 36.5-.7 61 3.5 11.4 2 22.6 3.6 24.9 3.6 3.9 0 3.1-.6-13.2-8.8-18.7-9.4-79.3-44-92.4-52.7-9.6-6.4-28.2-22.1-34.8-29.4-8.8-9.9-23.6-36.3-25.2-45.2-.5-2.7-.2-4 1.1-5.4 1.5-1.5 2.9-1.6 9.8-1.1 8.5.8 32.9 4.2 35.9 5.2.9.3 1.7.3 1.7.1 0-.2-6.9-5.7-15.4-12.1-17.6-13.3-20.5-16.3-28.8-30.1-13.4-22.4-22.1-43-19-44.9.5-.3 4.1 0 7.8.8 3.8.8 10.9 2.2 15.8 3.1 8.7 1.5 25.1 7.6 55.1 20.2 12.7 5.3 25.7 11.9 40.5 20.4l5.5 3.2-2.9-3.1c-1.6-1.8-8.1-6.6-14.5-10.9-17.9-12-52.1-40.1-63.7-52.4-7.7-8.3-19.1-28.5-29.7-53-5.8-13.3-8-21.4-6.6-24.1 1.3-2.4 3.6-2 16.9 2.9 20.4 7.6 28.3 11.5 73 36.1l6.5 3.5-3-3.3c-1.6-1.8-6.7-6.3-11.2-10.1-9.3-7.8-25.8-26.5-33.8-38.4-4.1-6-6.4-10.9-9.4-20.1-6.7-20.4-11.9-52.5-9.2-56.4.7-1 1.4-1.1 1.9-.5.8 1.2 25.5 14.7 41.2 22.5 5.8 2.9 13.2 6.8 16.5 8.8 5.7 3.4 65.1 47.3 87.5 64.7 5.8 4.5 13.7 10.4 17.5 13l7 4.9-7.5-8c-4.2-4.3-12-12.8-17.4-18.7-5.5-5.9-12.8-12.9-16.3-15.5-3.5-2.6-5.9-4.8-5.3-5 .6-.2 4.1.6 7.9 1.7 3.8 1.2 9.5 2.1 12.7 2.1 5.3 0 5.7-.1 3.8-1.4-1.1-.8-6.4-3.1-11.9-5.1-12-4.5-18.9-8.2-23.1-12.7-6.3-6.6-36.9-45.5-42.5-54.1-6.6-10-9.2-16.2-11.3-27.5-2.3-12.2-3.9-38.2-2.9-48.9l.8-9.2 9.5 5.8c5.2 3.2 12.6 7.5 16.3 9.6 3.8 2 15.1 9.8 25 17.3 10 7.5 22.5 16.3 27.7 19.7 14.9 9.4 19.9 13 45.5 32.4 36.5 27.7 57.6 46.3 101.8 90.1 32.4 31.9 61.4 63.5 91.6 100 13.6 16.4 23.3 27.2 23.8 26.6.3-.2-1.9-4.1-4.7-8.5-5.5-8.6-14-26.4-14-29.4 0-.9.4-1.7 1-1.7.5 0 5.1 2.5 10.2 5.6 5.1 3.1 9.7 5.9 10.2 6.2 3 1.8-2.3-3.3-14.8-14.2-11.7-10.2-15.5-14.3-21.5-22.8-3.9-5.6-13.6-19.2-21.4-30-7.8-10.8-17.8-25.5-22.1-32.6-4.3-7.1-13-19.9-19.3-28.3-9.7-13-16.7-23.1-20.8-29.8-.8-1.4 2.2-1.2 10.5.5 1.8.4 1.3-.2-1.7-2-11.4-6.7-20.3-17.1-31.5-36.6-6.9-12.1-10.4-20.2-11.9-27.1-2.1-9.9.4-50.7 3.7-59.3.6-1.5-50.7-1.6-656-1.6H1l.1 902.2zm562.4 319.6c27.8 7.8 48.1 27.3 55.7 53.7l2.3 8v105c0 97.8-.1 105.5-1.8 112.7-3.3 14-10.1 24.3-17.9 27l-2.8 1 4 2.9c7.6 5.5 12.4 13.9 16.3 28.4 2.1 7.9 2.1 9.1 2.4 129.8l.4 121.7H557v-111.8c0-80.1-.3-113.5-1.1-117.6-2.3-11.2-10.7-20.8-20.7-23.6-2-.5-12.8-1-23.9-1H491v254h-65v-593.1l64.8.3c63.4.4 64.9.4 72.7 2.6zm1174.7.1c7.4 2.9 13 9 15.7 17.4 2.5 7.7-1.7-18.1 49.1 298.7 23.7 147.7 43.3 269.7 43.6 271.2l.6 2.8h-71l-.9-6.7c-.6-3.8-13.1-94.9-27.9-202.6-14.8-107.7-27-195.4-27.2-194.9-.1.5-12.8 91.4-28.1 202.1-15.3 110.6-28 201.4-28.3 201.6-.3.3-16.2.4-35.4.3l-35-.3 47.2-296c26-162.8 47.3-296.2 47.3-296.3.1-.2 10.1-.2 22.4 0 20.1.4 22.7.6 27.9 2.7z" style="stroke:#000;fill:#1b1f32"/><path d="M491 1389v112.2l21.8-.4c21.1-.3 21.9-.4 27.6-3.1 7.8-3.6 12.2-8.6 14.7-16.7 1.9-6.3 1.9-9.3 1.7-95l-.3-88.5-2.2-4.2c-3.3-6.1-8.8-10.9-15.2-13.5-5-1.9-7.9-2.2-26.8-2.6l-21.3-.4V1389z" style="stroke:#000;fill:#1b1f32"/></svg>
